<svg data-bbox="31.304 54.011 137.392 94.889" data-type="color" viewBox="0 0 200 200" height="200" width="200" xmlns="http://www.w3.org/2000/svg">
    <g>
        <path data-color="1" d="M114.778 106.956a36.062 36.062 0 0 1-.997 4.52H77.63v11h30.863c-6.608 9.323-17.474 15.425-29.745 15.425-20.096 0-36.444-16.349-36.444-36.444s16.349-36.444 36.444-36.444c18.226 0 33.37 13.449 36.03 30.944h11.086c-2.736-23.578-22.816-41.944-47.116-41.944-26.161 0-47.444 21.283-47.444 47.444S52.587 148.9 78.748 148.9c24.3 0 44.38-18.366 47.116-41.944h-11.086z" fill="#0000FF"/>
        <path data-color="2" d="M121.252 54.011v11c20.096 0 36.444 16.349 36.444 36.444S141.348 137.9 121.252 137.9v11c26.161 0 47.444-21.283 47.444-47.444s-21.283-47.445-47.444-47.445z" fill="#12BDB5"/>
        <path data-color="2" d="M77.63 95.956v11h63.475v-11H77.63z" fill="#12BDB5"/>
    </g>
</svg>
